<?xml version="1.0" standalone="no"?><!DOCTYPE svg PUBLIC "-//W3C//DTD SVG 1.1//EN" "http://www.w3.org/Graphics/SVG/1.1/DTD/svg11.dtd"><svg t="1628240901842" class="icon" viewBox="0 0 1024 1024" version="1.1" xmlns="http://www.w3.org/2000/svg" p-id="874" xmlns:xlink="http://www.w3.org/1999/xlink" width="32" height="32"><defs><style type="text/css"></style></defs><path d="M484.26915237 631.03613845L304.65782906 428.11910277c-5.11348964-5.80184401-4.57263979-14.70128269 1.22920425-19.8639405 5.80184401-5.11348964 14.70128269-4.57263979 19.86394049 1.22920425L505.31312895 612.40140219c5.11348964 5.80184401 4.57263979 14.70128269-1.22920425 19.86394048-5.75267584 5.11348964-14.70128269 4.57263979-19.81477233-1.22920422z" fill="#ffffff" p-id="875"></path><path d="M663.43796217 409.4843665L483.87580702 612.40140219c-5.11348964 5.80184401-4.57263979 14.70128269 1.22920424 19.8639405 5.80184401 5.11348964 14.70128269 4.57263979 19.86394049-1.22920424l179.56215516-202.96620384c5.11348964-5.80184401 4.57263979-14.70128269-1.22920423-19.8639405-5.80184402-5.06432147-14.75045084-4.52347161-19.86394049 1.27837239z" fill="#ffffff" p-id="876"></path></svg>