<?xml version="1.0" standalone="no"?><!DOCTYPE svg PUBLIC "-//W3C//DTD SVG 1.1//EN" "http://www.w3.org/Graphics/SVG/1.1/DTD/svg11.dtd"><svg t="1628775717797" class="icon" viewBox="0 0 1024 1024" version="1.1" xmlns="http://www.w3.org/2000/svg" p-id="5379" width="16" height="16" xmlns:xlink="http://www.w3.org/1999/xlink"><defs><style type="text/css"></style></defs><path d="M332.275 505.196c7.519 8.945 14.403 19.074 20.583 30.248 21.33 38.612 34.536 91.066 34.536 148.203 0 57.15-13.205 109.603-34.536 148.216-25.423 45.992-63.005 74.434-106.711 74.434-43.735 0-81.317-28.442-106.726-74.434a233.75 233.75 0 0 1-6.716-13.177c-39.375-15.307-68.493-69.947-68.493-135.039 0-65.065 29.118-119.719 68.493-135.026a234.432 234.432 0 0 1 6.716-13.177c11.99-21.684 26.664-39.46 43.437-52.199 67.887-495.452 572.128-503.127 643.952-12.64 23.137 11.709 43.297 33.097 58.957 61.425a228.606 228.606 0 0 1 6.744 13.234c34.986 7.984 62.158 66.898 62.158 138.383 0 71.498-27.172 130.412-62.158 138.396a223.133 223.133 0 0 1-6.744 13.22c-18.919 34.254-44.44 58.378-73.841 67.492-16.096 4.98-94.325 6.673-100.264 3.864-38.401-2.186-71.838-29.033-95.213-71.356-21.698-39.248-35.115-92.9-35.115-151.616 0-58.703 13.416-112.355 35.115-151.618 15.66-28.342 35.833-49.743 58.985-61.439-41.111-400.422-296.392-382.604-343.159 34.606z m402.933 342.312l1.904-1.156c5.474-3.315 10.764-7.761 15.773-13.22l0.212-0.225 0.113-0.142c5.826-6.504 11.342-14.446 16.392-23.574 15.322-27.708 25.521-65.136 27.835-107.234l0.014-0.113c0.14-2.765 0.267-5.557 0.338-8.366l0.014-0.607v-0.056l0.056-1.82V690.53c0.027-1.424 0.056-2.863 0.056-4.302l0.014-0.254v-0.48l0.014-1.848-0.014-1.835v-0.48l-0.014-0.254c0-1.439-0.029-2.878-0.056-4.302V676.308l-0.056-1.819v-0.056l-0.014-0.607a328.189 328.189 0 0 0-0.338-8.366l-0.014-0.113c-2.314-42.098-12.513-79.512-27.835-107.234-5.05-9.142-10.552-17.07-16.392-23.573l-0.113-0.142-0.212-0.225c-5.009-5.459-10.299-9.904-15.773-13.22l-1.904-1.156c-6.01-3.245-12.203-4.981-18.439-4.981-19.257 0-38.049 16.548-52.819 43.297-17.509 31.672-28.329 76.027-28.329 125.532 0 49.518 10.82 93.873 28.329 125.545 14.77 26.749 33.562 43.297 52.819 43.297 6.236 0.002 12.429-1.734 18.439-4.979z m-18.439-253.7c-23.446 0-42.451 40.236-42.451 89.839 0 49.63 19.004 89.852 42.451 89.852 23.461 0 42.478-40.222 42.478-89.852 0-49.603-19.018-89.839-42.478-89.839z" p-id="5380" fill="#ffffff"></path></svg>