<?xml version="1.0" standalone="no"?><!DOCTYPE svg PUBLIC "-//W3C//DTD SVG 1.1//EN" "http://www.w3.org/Graphics/SVG/1.1/DTD/svg11.dtd"><svg t="1628241572136" class="icon" viewBox="0 0 1024 1024" version="1.1" xmlns="http://www.w3.org/2000/svg" p-id="1052" width="64" height="64" xmlns:xlink="http://www.w3.org/1999/xlink"><defs><style type="text/css"></style></defs><path d="M336.67204332 471.1553211L635.54791165 206.60636375c8.54551792-7.53164292 21.65347339-6.73502688 29.25753593 1.81049111 7.53164292 8.54551792 6.73502688 21.65347339-1.81049108 29.25753593L364.11908819 502.15092851c-8.54551792 7.53164292-21.65347339 6.73502688-29.25753593-1.8104911-7.53164292-8.47309829-6.73502688-21.65347339 1.81049106-29.18511631z" fill="#ffffff" p-id="1053"></path><path d="M662.99495651 735.05250165L364.11908818 470.57596397c-8.54551792-7.53164292-21.65347339-6.73502688-29.25753595 1.81049109-7.53164292 8.54551792-6.73502688 21.65347339 1.81049109 29.25753593l298.94828797 264.47653771c8.54551792 7.53164292 21.65347339 6.73502688 29.25753594-1.81049106 7.45922326-8.54551793 6.6626072-21.72589298-1.88291072-29.25753593z" fill="#ffffff" p-id="1054"></path></svg>