<?xml version="1.0" standalone="no"?><!DOCTYPE svg PUBLIC "-//W3C//DTD SVG 1.1//EN" "http://www.w3.org/Graphics/SVG/1.1/DTD/svg11.dtd"><svg t="1628323415266" class="icon" viewBox="0 0 1024 1024" version="1.1" xmlns="http://www.w3.org/2000/svg" p-id="5989" width="48" height="48" xmlns:xlink="http://www.w3.org/1999/xlink"><defs><style type="text/css"></style></defs><path d="M512 0c282.7776 0 512 229.2224 512 512s-229.2224 512-512 512S0 794.7776 0 512 229.2224 0 512 0z m0 76.8a435.2 435.2 0 1 0 0 870.4 435.2 435.2 0 0 0 0-870.4zM396.8 296.96c19.3024 0 35.2256 14.4896 37.9904 33.3824l0.4096 5.8368v382.3616a38.8096 38.8096 0 0 1-38.4 39.2192 38.656 38.656 0 0 1-37.9904-33.3824L358.4 718.5408V336.1792c0-21.6576 17.2032-39.2192 38.4-39.2192z m237.9776 0c19.3024 0 35.2768 14.4896 37.9904 33.3824l0.4096 5.8368v382.3616a38.8096 38.8096 0 0 1-38.4 39.2192 38.656 38.656 0 0 1-37.9392-33.3824l-0.4608-5.8368V336.1792c0-21.6576 17.2032-39.2192 38.4-39.2192z" p-id="5990" fill="#c62f2f"></path></svg>