<?xml version="1.0" standalone="no"?><!DOCTYPE svg PUBLIC "-//W3C//DTD SVG 1.1//EN" "http://www.w3.org/Graphics/SVG/1.1/DTD/svg11.dtd"><svg t="1628322131211" class="icon" viewBox="0 0 1024 1024" version="1.1" xmlns="http://www.w3.org/2000/svg" p-id="5585" xmlns:xlink="http://www.w3.org/1999/xlink" width="64" height="64"><defs><style type="text/css"></style></defs><path d="M512 0C229.234286 0 0 229.234286 0 512s229.234286 512 512 512 512-229.234286 512-512S794.765714 0 512 0z m0 914.285714C289.828571 914.285714 109.714286 734.171429 109.714286 512S289.828571 109.714286 512 109.714286s402.285714 180.114286 402.285714 402.285714-180.114286 402.285714-402.285714 402.285714z" p-id="5586" fill="#ffffff"></path><path d="M347.428571 310.857143m54.857143 0l0 0q54.857143 0 54.857143 54.857143l0 310.857143q0 54.857143-54.857143 54.857142l0 0q-54.857143 0-54.857143-54.857142l0-310.857143q0-54.857143 54.857143-54.857143Z" p-id="5587" fill="#ffffff"></path><path d="M566.857143 310.857143m54.857143 0l0 0q54.857143 0 54.857143 54.857143l0 310.857143q0 54.857143-54.857143 54.857142l0 0q-54.857143 0-54.857143-54.857142l0-310.857143q0-54.857143 54.857143-54.857143Z" p-id="5588" fill="#ffffff"></path></svg>