<?xml version="1.0" standalone="no"?><!DOCTYPE svg PUBLIC "-//W3C//DTD SVG 1.1//EN" "http://www.w3.org/Graphics/SVG/1.1/DTD/svg11.dtd"><svg t="1629192353569" class="icon" viewBox="0 0 1024 1024" version="1.1" xmlns="http://www.w3.org/2000/svg" p-id="5390" xmlns:xlink="http://www.w3.org/1999/xlink" width="14" height="14"><defs><style type="text/css"></style></defs><path d="M512 65C265.13 65 65 265.13 65 512s200.13 447 447 447 447-200.12 447-447S758.88 65 512 65z m72.46 485.58l82.29 82.29L701 667.14c9.47 9.47 8.78 24.32 0 33.88s-25 8.88-33.88 0c-0.19-0.19-0.38-0.39-0.58-0.58-14.23-13.61-27.88-27.88-41.8-41.8l-85.71-85.71-27-27-38.58 38.58-82.29 82.29-34.3 34.2c-9.47 9.47-24.32 8.78-33.88 0s-8.88-25 0-33.88l0.58-0.58c13.61-14.23 27.88-27.88 41.8-41.8l85.71-85.71 27.05-27-38.58-38.58-82.29-82.29-34.25-34.3c-9.47-9.47-8.78-24.32 0-33.88s25-8.88 33.88 0l0.58 0.58c14.23 13.61 27.88 27.88 41.8 41.8L485 451.07l27 27.05 38.58-38.58 82.29-82.29Q650 340.11 667.14 323c9.47-9.47 24.32-8.78 33.88 0s8.88 25 0 33.88c-0.19 0.19-0.39 0.38-0.58 0.58-13.61 14.23-27.88 27.88-41.8 41.8L572.93 485l-27 27.05z" p-id="5391" fill="#bfbfbf"></path></svg>